<?xml version="1.0" encoding="utf-8"?>
<!-- Generator: Adobe Illustrator 27.5.0, SVG Export Plug-In . SVG Version: 6.00 Build 0)  -->
<svg version="1.1" id="Layer_1" xmlns="http://www.w3.org/2000/svg" xmlns:xlink="http://www.w3.org/1999/xlink" x="0px" y="0px"
	 viewBox="0 0 283.134 336.657" style="enable-background:new 0 0 283.134 336.657;" xml:space="preserve">
<g>
	<g>
		<path style="fill:#FFFFFF;" d="M278.473,191.442c0.026-5.534-0.684-10.966-1.369-16.221c-0.133-1.02-0.266-2.04-0.393-3.058
			c-1.877-15.02-5.143-30.02-8.351-44.558c3.412-4.838,4.863-11.122,3.726-16.659c-0.261-1.272-0.472-2.492-0.677-3.678
			c-0.86-4.96-1.749-10.088-5.608-15.402c-4.873-6.733-12.914-6.969-19.374-7.158c-0.878-0.026-1.743-0.052-2.583-0.094l-1.068-0.21
			c-2.077-0.412-4.227-0.838-6.295-1.014c-5.051-0.434-10.159-0.732-15.102-1.021c-0.946-0.056-1.892-0.111-2.838-0.167
			c-1.047-0.731-2.209-1.346-3.48-1.835c0.403-2.05,0.65-4.174,0.738-6.356c0.464-11.627-8.843-20.843-18.272-24.816
			c-6.665-2.81-14.58-3.581-23.055-2.29c0.004-0.255,0.01-0.523,0.016-0.802c0.305-15.567,2.321-19.02,3.487-19.688
			c2.203-1.256,3.324-3.97,2.666-6.451c-0.633-2.39-2.722-3.996-5.196-3.996c-0.125,0-0.311,0.007-0.436,0.017
			c-0.355,0.027-0.618,0.044-0.821,0.057c-1.268,0.079-1.769,0.19-2.975,0.663l-0.81,0.313c-1.799,0.72-2.996,2.428-3.131,4.305
			c-3.7,5.252-4.381,12.801-4.903,18.605c-0.088,0.979-0.17,1.892-0.263,2.707c-0.309,2.719-0.498,5.324-0.565,7.784
			c-6.734,2.766-12.943,6.979-17.101,11.671c-1.23,1.106-2.346,2.243-3.408,3.478c-6.08,7.107-8.753,15.55-7.549,23.318
			c-3.623,2.314-6.627,5.861-8.409,10.056c-0.633,0.568-1.187,1.081-1.702,1.577c-1.546,1.491-3.082,2.999-4.617,4.509
			c-3.684,3.619-7.493,7.363-11.381,10.747c-16.911,14.721-31.318,32.529-45.251,49.752c-3.067,3.791-6.122,7.567-9.189,11.294
			c-1.882,2.284-3.745,4.591-5.61,6.899c-6.919,8.563-14.073,17.416-22.102,24.936l-0.121,0.113
			c-6.82,6.385-18.234,17.071-12.727,29.856c0.306,0.72,0.716,1.356,1.213,1.894c1.337,3.163,3.17,4.765,4.827,5.564
			c0.212,1.452,0.309,3.026,0.411,4.655c0.101,1.619,0.204,3.293,0.432,4.945c0.895,6.521,1.943,12.383,3.207,17.921
			c0.9,3.929,1.858,7.893,2.783,11.729c1.726,7.145,3.51,14.534,4.957,21.828c0.174,0.876,0.341,1.819,0.515,2.805
			c1.184,6.702,2.659,15.044,8.579,19.698c1.613,1.271,3.61,1.942,5.775,1.942c2.444,0,4.701-0.83,6.582-1.642
			c1.742-0.749,3.186-2.023,4.346-3.047c0.318-0.281,0.623-0.554,0.903-0.778c0.598-0.476,2.213-0.878,3.511-1.201
			c0.372-0.093,0.743-0.185,1.11-0.282c0.051,0.001,0.102,0.001,0.154,0.001h0.001c3.982,0,7.374-1.659,10.365-3.124l0.826-0.402
			c6.204-3.007,12.341-6.083,19.147-9.505c7.464-3.755,14.849-7.853,21.988-11.817c4.852-2.692,9.867-5.477,14.837-8.112
			c23.396-12.409,50.939-27.308,77.842-43.714c14.047-8.567,27.126-16.186,39.983-23.29c5.888-3.253,11.614-6.789,17.152-10.208
			l1.459-0.9c0.493-0.305,1.682-0.682,2.73-1.014c3.296-1.044,7.808-2.473,9.676-6.94c1.561-3.715,1.245-7.543,0.968-10.922
			C278.559,193.527,278.467,192.412,278.473,191.442z"/>
		<path style="fill:#F1F1F1;" d="M277.865,190.449c0.026-5.534-0.682-10.966-1.369-16.221c-0.132-1.02-0.266-2.04-0.392-3.058
			c-1.877-15.02-5.141-30.02-8.351-44.558c3.412-4.837,4.864-11.121,3.726-16.659c-0.26-1.271-0.472-2.492-0.677-3.678
			c-0.86-4.96-1.748-10.088-5.608-15.402c-4.872-6.732-12.914-6.97-19.374-7.158c-0.877-0.025-1.742-0.051-2.583-0.093l-1.066-0.21
			c-2.079-0.412-4.229-0.839-6.297-1.014c-5.05-0.435-10.159-0.732-15.102-1.021c-0.946-0.056-1.892-0.11-2.837-0.167
			c-1.048-0.731-2.209-1.345-3.48-1.835c0.403-2.05,0.65-4.173,0.738-6.355c0.463-11.628-8.844-20.844-18.273-24.816
			c-6.665-2.811-14.58-3.583-23.056-2.291c0.005-0.255,0.01-0.523,0.016-0.802c0.306-15.567,2.322-19.02,3.488-19.688
			c2.202-1.256,3.325-3.969,2.665-6.451c-0.632-2.391-2.721-3.996-5.195-3.996c-0.125,0-0.311,0.008-0.436,0.017
			c-0.355,0.028-0.617,0.044-0.821,0.057c-1.267,0.079-1.769,0.191-2.974,0.664l-0.81,0.313c-1.799,0.72-2.997,2.428-3.131,4.304
			c-3.701,5.252-4.382,12.801-4.904,18.605c-0.088,0.978-0.169,1.892-0.262,2.706c-0.31,2.719-0.499,5.325-0.565,7.786
			c-6.734,2.765-12.944,6.979-17.102,11.67c-1.23,1.107-2.346,2.243-3.408,3.478c-6.079,7.107-8.753,15.552-7.548,23.32
			c-3.623,2.313-6.627,5.86-8.409,10.055c-0.634,0.568-1.188,1.082-1.703,1.577c-1.546,1.491-3.08,2.998-4.617,4.508
			c-3.683,3.621-7.492,7.364-11.381,10.748c-16.911,14.721-31.316,32.53-45.251,49.751c-3.067,3.792-6.121,7.569-9.189,11.295
			c-1.882,2.284-3.745,4.591-5.609,6.898c-6.919,8.564-14.074,17.418-22.102,24.938l-0.122,0.112
			c-6.819,6.386-18.195,17.055-12.727,29.855c0.308,0.72,0.717,1.356,1.213,1.894c1.339,3.164,3.172,4.767,4.828,5.563
			c0.211,1.453,0.309,3.027,0.41,4.657c0.101,1.619,0.206,3.292,0.432,4.944c0.895,6.522,1.943,12.383,3.207,17.922
			c0.901,3.928,1.859,7.893,2.784,11.727c1.725,7.147,3.51,14.535,4.956,21.829c0.175,0.875,0.342,1.818,0.515,2.804
			c1.185,6.702,2.66,15.045,8.58,19.698c1.614,1.271,3.609,1.943,5.774,1.943c2.445,0,4.701-0.832,6.583-1.642
			c1.741-0.75,3.186-2.024,4.346-3.048c0.318-0.281,0.622-0.554,0.903-0.778c0.596-0.477,2.212-0.877,3.51-1.2
			c0.372-0.093,0.744-0.187,1.11-0.282c0.051,0.001,0.104,0.001,0.155,0.001l0,0c3.983,0,7.375-1.66,10.367-3.125l0.824-0.402
			c6.204-3.006,12.342-6.083,19.148-9.505c7.464-3.755,14.848-7.853,21.989-11.817c4.85-2.692,9.866-5.477,14.836-8.111
			c23.395-12.409,50.939-27.309,77.842-43.715c14.047-8.568,27.125-16.186,39.982-23.29c5.888-3.253,11.614-6.788,17.152-10.207
			l1.459-0.902c0.494-0.304,1.683-0.681,2.732-1.012c3.296-1.044,7.808-2.473,9.675-6.941c1.561-3.716,1.246-7.543,0.968-10.922
			C277.952,192.535,277.86,191.418,277.865,190.449z"/>
		<path style="fill:#E2E2E2;" d="M277.259,189.457c0.026-5.535-0.683-10.967-1.368-16.221c-0.133-1.02-0.267-2.041-0.394-3.058
			c-1.876-15.02-5.142-30.02-8.35-44.558c3.411-4.838,4.863-11.122,3.726-16.66c-0.261-1.271-0.472-2.492-0.678-3.677
			c-0.86-4.96-1.749-10.089-5.607-15.402c-4.874-6.733-12.914-6.97-19.375-7.159c-0.878-0.025-1.743-0.051-2.583-0.093l-1.067-0.21
			c-2.077-0.412-4.227-0.838-6.296-1.014c-5.051-0.434-10.159-0.732-15.102-1.021c-0.946-0.055-1.892-0.11-2.837-0.166
			c-1.048-0.731-2.209-1.346-3.48-1.835c0.403-2.05,0.65-4.174,0.737-6.356c0.464-11.628-8.843-20.843-18.271-24.816
			c-6.665-2.809-14.58-3.581-23.056-2.29c0.005-0.255,0.011-0.523,0.016-0.802c0.306-15.567,2.321-19.02,3.487-19.687
			c2.203-1.256,3.326-3.97,2.667-6.451c-0.633-2.39-2.722-3.996-5.197-3.996c-0.125,0-0.311,0.007-0.436,0.017
			c-0.355,0.027-0.617,0.043-0.821,0.057c-1.267,0.079-1.768,0.19-2.974,0.663l-0.81,0.313c-1.799,0.72-2.996,2.428-3.132,4.305
			c-3.7,5.252-4.38,12.8-4.903,18.606c-0.088,0.979-0.169,1.892-0.262,2.707c-0.31,2.719-0.499,5.324-0.566,7.784
			c-6.733,2.766-12.943,6.979-17.101,11.671c-1.23,1.106-2.346,2.243-3.408,3.479c-6.079,7.106-8.753,15.55-7.549,23.318
			c-3.622,2.314-6.627,5.86-8.409,10.056c-0.633,0.568-1.187,1.081-1.702,1.577c-1.546,1.49-3.081,2.999-4.616,4.509
			c-3.685,3.619-7.493,7.363-11.382,10.747c-16.91,14.721-31.317,32.529-45.251,49.752c-3.067,3.791-6.122,7.567-9.189,11.294
			c-1.881,2.284-3.744,4.591-5.609,6.899c-6.919,8.563-14.074,17.416-22.102,24.936l-0.121,0.113
			c-6.82,6.385-18.196,17.054-12.727,29.855c0.307,0.719,0.715,1.357,1.212,1.895c1.338,3.163,3.171,4.765,4.827,5.564
			c0.213,1.452,0.311,3.026,0.411,4.655c0.101,1.619,0.205,3.293,0.433,4.945c0.893,6.521,1.942,12.382,3.206,17.921
			c0.901,3.929,1.858,7.894,2.784,11.729c1.725,7.146,3.51,14.534,4.956,21.828c0.174,0.876,0.341,1.819,0.516,2.804
			c1.184,6.703,2.659,15.045,8.579,19.699c1.613,1.271,3.61,1.942,5.774,1.942c2.445,0,4.701-0.831,6.583-1.642
			c1.741-0.749,3.185-2.023,4.345-3.047c0.319-0.281,0.623-0.554,0.903-0.778c0.598-0.476,2.213-0.878,3.511-1.201
			c0.372-0.093,0.744-0.186,1.11-0.282c0.051,0.001,0.104,0.001,0.154,0.001h0.001c3.983,0,7.375-1.659,10.366-3.124l0.826-0.402
			c6.203-3.007,12.341-6.083,19.146-9.505c7.465-3.755,14.849-7.854,21.989-11.817c4.851-2.693,9.866-5.477,14.836-8.112
			c23.396-12.409,50.94-27.308,77.843-43.714c14.047-8.567,27.126-16.186,39.983-23.29c5.888-3.253,11.615-6.789,17.152-10.208
			l1.459-0.9c0.493-0.305,1.683-0.682,2.731-1.014c3.295-1.044,7.807-2.473,9.675-6.94c1.562-3.716,1.246-7.543,0.968-10.922
			C277.346,191.542,277.253,190.426,277.259,189.457z"/>
		<path style="fill:#D4D4D4;" d="M276.652,188.465c0.026-5.535-0.684-10.967-1.369-16.222c-0.133-1.02-0.267-2.04-0.393-3.058
			c-1.876-15.02-5.142-30.02-8.349-44.558c3.412-4.837,4.862-11.121,3.725-16.659c-0.261-1.271-0.472-2.492-0.678-3.678
			c-0.859-4.96-1.748-10.088-5.607-15.402c-4.874-6.733-12.914-6.97-19.375-7.159c-0.878-0.024-1.742-0.051-2.583-0.092
			l-1.067-0.211c-2.077-0.411-4.226-0.838-6.296-1.013c-5.051-0.436-10.159-0.732-15.101-1.021
			c-0.946-0.056-1.891-0.111-2.838-0.167c-1.047-0.731-2.209-1.345-3.48-1.835c0.404-2.05,0.65-4.174,0.737-6.355
			c0.465-11.628-8.843-20.843-18.271-24.816c-6.666-2.81-14.581-3.583-23.057-2.291c0.006-0.255,0.011-0.522,0.017-0.802
			c0.305-15.567,2.321-19.021,3.486-19.688c2.203-1.255,3.325-3.969,2.668-6.451c-0.634-2.39-2.723-3.995-5.198-3.995
			c-0.125,0-0.311,0.006-0.436,0.016c-0.356,0.028-0.616,0.044-0.821,0.057c-1.268,0.079-1.769,0.191-2.975,0.663l-0.809,0.313
			c-1.799,0.721-2.995,2.429-3.132,4.305c-3.7,5.252-4.38,12.801-4.903,18.605c-0.087,0.978-0.168,1.891-0.262,2.707
			c-0.308,2.719-0.498,5.325-0.565,7.785c-6.734,2.765-12.943,6.979-17.102,11.67c-1.23,1.106-2.345,2.243-3.408,3.479
			c-6.079,7.107-8.753,15.551-7.549,23.319c-3.622,2.313-6.627,5.86-8.408,10.055c-0.632,0.568-1.188,1.082-1.702,1.577
			c-1.547,1.491-3.081,2.999-4.617,4.508c-3.685,3.621-7.493,7.364-11.381,10.748c-16.911,14.721-31.318,32.53-45.252,49.752
			c-3.067,3.791-6.122,7.568-9.189,11.294c-1.881,2.284-3.743,4.591-5.609,6.899c-6.919,8.562-14.073,17.417-22.101,24.936
			l-0.121,0.114c-6.82,6.385-18.196,17.054-12.727,29.855c0.307,0.72,0.715,1.356,1.212,1.895c1.339,3.163,3.171,4.765,4.828,5.563
			c0.212,1.452,0.309,3.025,0.412,4.655c0.1,1.619,0.204,3.292,0.432,4.945c0.894,6.522,1.941,12.383,3.205,17.921
			c0.902,3.929,1.858,7.894,2.784,11.728c1.726,7.147,3.51,14.536,4.957,21.83c0.174,0.875,0.34,1.818,0.516,2.803
			c1.183,6.704,2.658,15.045,8.578,19.699c1.614,1.272,3.61,1.943,5.774,1.943c2.446,0,4.701-0.831,6.583-1.642
			c1.742-0.75,3.186-2.023,4.345-3.048c0.319-0.281,0.623-0.554,0.904-0.777c0.599-0.476,2.212-0.879,3.51-1.201
			c0.373-0.093,0.744-0.186,1.11-0.282c0.052,0,0.104,0,0.154,0h0.001c3.983,0,7.375-1.659,10.367-3.124l0.825-0.402
			c6.203-3.006,12.341-6.083,19.146-9.505c7.465-3.755,14.85-7.854,21.989-11.816c4.851-2.693,9.868-5.479,14.836-8.112
			c23.396-12.41,50.941-27.31,77.843-43.715c14.047-8.567,27.126-16.186,39.983-23.289c5.887-3.254,11.614-6.789,17.151-10.208
			l1.459-0.901c0.494-0.305,1.684-0.682,2.731-1.014c3.295-1.043,7.808-2.472,9.675-6.941c1.562-3.715,1.246-7.543,0.969-10.922
			C276.738,190.55,276.647,189.434,276.652,188.465z"/>
		<path style="fill:#C5C5C5;" d="M276.046,187.472c0.026-5.535-0.684-10.967-1.369-16.221c-0.133-1.021-0.267-2.041-0.393-3.058
			c-1.877-15.021-5.143-30.021-8.351-44.558c3.412-4.838,4.863-11.122,3.726-16.66c-0.261-1.271-0.472-2.492-0.678-3.677
			c-0.859-4.96-1.748-10.089-5.607-15.402c-4.874-6.733-12.914-6.97-19.374-7.159c-0.879-0.025-1.743-0.051-2.584-0.093l-1.067-0.21
			c-2.077-0.412-4.227-0.839-6.295-1.014c-5.051-0.434-10.16-0.732-15.102-1.021c-0.946-0.055-1.892-0.11-2.838-0.166
			c-1.047-0.731-2.209-1.346-3.48-1.835c0.403-2.05,0.65-4.174,0.738-6.356c0.464-11.628-8.843-20.843-18.272-24.816
			c-6.665-2.81-14.58-3.582-23.056-2.29c0.005-0.255,0.011-0.523,0.017-0.802c0.305-15.567,2.321-19.021,3.486-19.689
			c2.204-1.255,3.325-3.969,2.667-6.45c-0.633-2.391-2.722-3.996-5.196-3.996c-0.125,0-0.311,0.007-0.436,0.017
			c-0.355,0.027-0.616,0.043-0.821,0.057c-1.267,0.078-1.769,0.19-2.974,0.663l-0.809,0.313c-1.799,0.72-2.996,2.428-3.132,4.305
			c-3.699,5.251-4.38,12.8-4.902,18.605c-0.089,0.979-0.169,1.892-0.263,2.707c-0.309,2.719-0.498,5.324-0.565,7.784
			c-6.734,2.766-12.943,6.979-17.102,11.671c-1.23,1.107-2.345,2.243-3.408,3.478c-6.079,7.108-8.752,15.551-7.548,23.319
			c-3.623,2.314-6.628,5.86-8.409,10.056c-0.633,0.568-1.188,1.081-1.702,1.577c-1.546,1.49-3.081,2.999-4.617,4.509
			c-3.684,3.619-7.493,7.363-11.382,10.746c-16.91,14.722-31.317,32.53-45.251,49.753c-3.066,3.791-6.122,7.567-9.188,11.294
			c-1.882,2.284-3.745,4.591-5.61,6.899c-6.919,8.561-14.073,17.416-22.102,24.935l-0.121,0.113
			c-6.82,6.385-18.196,17.054-12.727,29.855c0.307,0.719,0.715,1.356,1.213,1.895c1.338,3.163,3.17,4.765,4.827,5.563
			c0.212,1.452,0.31,3.026,0.411,4.655c0.102,1.619,0.205,3.293,0.432,4.944c0.894,6.522,1.943,12.383,3.207,17.922
			c0.901,3.929,1.858,7.893,2.783,11.728c1.726,7.146,3.51,14.535,4.956,21.829c0.175,0.875,0.342,1.819,0.516,2.804
			c1.185,6.703,2.659,15.045,8.579,19.699c1.614,1.271,3.61,1.942,5.774,1.942c2.446,0,4.702-0.831,6.583-1.642
			c1.742-0.749,3.186-2.023,4.345-3.048c0.319-0.281,0.624-0.553,0.904-0.777c0.598-0.476,2.213-0.878,3.511-1.201
			c0.372-0.093,0.743-0.185,1.109-0.282c0.052,0.001,0.104,0.001,0.155,0.001c0,0,0,0,0.001,0c3.982,0,7.374-1.659,10.366-3.124
			l0.825-0.402c6.204-3.007,12.341-6.084,19.148-9.505c7.464-3.755,14.848-7.853,21.988-11.817
			c4.852-2.693,9.868-5.478,14.836-8.112c23.396-12.409,50.94-27.308,77.843-43.715c14.047-8.566,27.126-16.185,39.983-23.289
			c5.887-3.253,11.614-6.789,17.152-10.208l1.458-0.9c0.494-0.306,1.683-0.683,2.732-1.014c3.296-1.044,7.808-2.473,9.676-6.941
			c1.56-3.716,1.245-7.543,0.968-10.922C276.132,189.557,276.04,188.44,276.046,187.472z"/>
		<path style="fill:#B7B7B7;" d="M275.44,186.48c0.026-5.535-0.682-10.967-1.369-16.222c-0.133-1.02-0.266-2.04-0.393-3.057
			c-1.877-15.021-5.142-30.021-8.35-44.558c3.411-4.839,4.862-11.123,3.725-16.66c-0.261-1.271-0.472-2.491-0.677-3.678
			c-0.859-4.96-1.749-10.088-5.608-15.402c-4.873-6.733-12.914-6.968-19.374-7.157c-0.878-0.026-1.743-0.052-2.583-0.093
			l-1.068-0.211c-2.077-0.413-4.227-0.839-6.295-1.015c-5.051-0.433-10.159-0.731-15.102-1.02c-0.946-0.054-1.892-0.111-2.838-0.167
			c-1.047-0.73-2.209-1.345-3.479-1.835c0.402-2.05,0.65-4.174,0.737-6.356c0.464-11.627-8.843-20.841-18.272-24.816
			c-6.664-2.81-14.579-3.58-23.055-2.29c0.004-0.255,0.01-0.523,0.016-0.802c0.305-15.567,2.321-19.019,3.487-19.687
			c2.203-1.254,3.324-3.969,2.666-6.451c-0.632-2.389-2.722-3.995-5.195-3.995c-0.125,0-0.312,0.006-0.437,0.016
			c-0.355,0.027-0.618,0.045-0.821,0.058c-1.268,0.078-1.769,0.189-2.975,0.662l-0.81,0.313c-1.799,0.722-2.996,2.429-3.131,4.306
			c-3.7,5.252-4.381,12.8-4.903,18.605c-0.088,0.979-0.17,1.893-0.262,2.707c-0.309,2.719-0.499,5.326-0.566,7.785
			c-6.734,2.765-12.943,6.979-17.101,11.67c-1.23,1.106-2.346,2.243-3.408,3.479c-6.079,7.108-8.753,15.55-7.549,23.319
			c-3.623,2.313-6.627,5.86-8.408,10.055c-0.634,0.568-1.188,1.082-1.703,1.578c-1.546,1.49-3.081,2.999-4.617,4.509
			c-3.683,3.619-7.493,7.362-11.381,10.746c-16.911,14.723-31.318,32.531-45.251,49.752c-3.067,3.791-6.122,7.568-9.189,11.295
			c-1.882,2.283-3.745,4.59-5.61,6.898c-6.918,8.564-14.073,17.416-22.102,24.936l-0.121,0.114
			c-6.82,6.384-18.198,17.056-12.727,29.855c0.308,0.718,0.716,1.355,1.213,1.895c1.337,3.162,3.17,4.764,4.827,5.563
			c0.212,1.452,0.309,3.026,0.411,4.657c0.101,1.617,0.204,3.292,0.432,4.943c0.895,6.521,1.943,12.383,3.207,17.921
			c0.9,3.93,1.858,7.895,2.784,11.729c1.725,7.146,3.509,14.534,4.956,21.828c0.175,0.875,0.342,1.819,0.515,2.805
			c1.184,6.703,2.659,15.043,8.58,19.697c1.612,1.271,3.609,1.942,5.774,1.942c2.444,0,4.701-0.83,6.583-1.642
			c1.741-0.748,3.185-2.022,4.345-3.047c0.318-0.281,0.623-0.554,0.903-0.777c0.598-0.476,2.213-0.878,3.511-1.201
			c0.372-0.093,0.744-0.187,1.11-0.282c0.051,0.001,0.103,0.001,0.155,0.001l0,0c3.983,0,7.374-1.66,10.365-3.124l0.826-0.403
			c6.204-3.007,12.341-6.083,19.147-9.505c7.464-3.755,14.849-7.853,21.989-11.816c4.851-2.693,9.866-5.478,14.836-8.113
			c23.396-12.409,50.939-27.307,77.842-43.713c14.047-8.567,27.126-16.185,39.983-23.29c5.888-3.253,11.614-6.79,17.152-10.208
			l1.459-0.901c0.493-0.305,1.683-0.682,2.73-1.014c3.297-1.044,7.808-2.472,9.676-6.94c1.561-3.714,1.245-7.543,0.968-10.922
			C275.525,188.564,275.434,187.448,275.44,186.48z"/>
		<path style="fill:#A8A8A8;" d="M274.832,185.486c0.027-5.535-0.683-10.967-1.369-16.221c-0.132-1.02-0.266-2.041-0.393-3.059
			c-1.877-15.02-5.141-30.02-8.351-44.557c3.412-4.838,4.863-11.122,3.726-16.66c-0.26-1.271-0.471-2.492-0.677-3.677
			c-0.86-4.96-1.749-10.089-5.608-15.403c-4.873-6.732-12.913-6.969-19.373-7.158c-0.879-0.025-1.744-0.051-2.584-0.093l-1.067-0.21
			c-2.078-0.412-4.227-0.839-6.296-1.014c-5.051-0.434-10.159-0.732-15.101-1.021c-0.947-0.055-1.893-0.11-2.838-0.166
			c-1.048-0.731-2.209-1.346-3.48-1.835c0.404-2.05,0.651-4.174,0.738-6.356c0.465-11.628-8.843-20.843-18.271-24.816
			c-6.665-2.81-14.581-3.582-23.056-2.291c0.005-0.255,0.011-0.522,0.016-0.801c0.306-15.567,2.321-19.021,3.487-19.688
			c2.204-1.255,3.326-3.969,2.666-6.45c-0.633-2.391-2.721-3.996-5.196-3.996c-0.125,0-0.311,0.007-0.436,0.017
			c-0.355,0.027-0.618,0.043-0.82,0.057c-1.269,0.078-1.77,0.19-2.975,0.663l-0.809,0.313c-1.8,0.72-2.997,2.428-3.133,4.305
			c-3.7,5.251-4.379,12.8-4.902,18.604c-0.089,0.979-0.171,1.892-0.264,2.708c-0.309,2.719-0.498,5.324-0.565,7.784
			c-6.733,2.766-12.943,6.979-17.101,11.671c-1.23,1.105-2.346,2.242-3.408,3.478c-6.08,7.107-8.753,15.551-7.548,23.319
			c-3.622,2.314-6.627,5.86-8.41,10.055c-0.633,0.568-1.186,1.082-1.702,1.577c-1.545,1.491-3.081,2.999-4.617,4.51
			c-3.684,3.619-7.492,7.362-11.381,10.746c-16.911,14.722-31.317,32.53-45.251,49.753c-3.067,3.791-6.121,7.567-9.189,11.294
			c-1.88,2.284-3.744,4.591-5.608,6.898c-6.919,8.563-14.075,17.417-22.102,24.937l-0.123,0.113
			c-6.819,6.385-18.195,17.054-12.727,29.855c0.308,0.719,0.716,1.356,1.213,1.895c1.338,3.162,3.171,4.765,4.827,5.563
			c0.212,1.452,0.31,3.027,0.411,4.656c0.101,1.619,0.205,3.293,0.432,4.944c0.895,6.523,1.944,12.383,3.207,17.922
			c0.9,3.928,1.858,7.894,2.784,11.727c1.726,7.147,3.51,14.535,4.956,21.829c0.174,0.875,0.341,1.818,0.515,2.804
			c1.185,6.703,2.66,15.045,8.581,19.698c1.612,1.271,3.608,1.943,5.774,1.943c2.443,0,4.7-0.831,6.581-1.642
			c1.743-0.749,3.187-2.023,4.347-3.048c0.318-0.281,0.622-0.553,0.902-0.777c0.598-0.476,2.214-0.878,3.511-1.201
			c0.372-0.093,0.743-0.186,1.111-0.282c0.051,0.001,0.103,0.001,0.153,0.001h0.002c3.982,0,7.373-1.659,10.365-3.124l0.825-0.402
			c6.204-3.007,12.342-6.084,19.147-9.505c7.466-3.755,14.849-7.854,21.989-11.817c4.851-2.693,9.866-5.477,14.836-8.112
			c23.397-12.409,50.94-27.308,77.843-43.715c14.047-8.566,27.125-16.185,39.982-23.289c5.888-3.253,11.614-6.789,17.152-10.208
			l1.459-0.9c0.494-0.306,1.683-0.683,2.73-1.014c3.296-1.044,7.809-2.473,9.677-6.94c1.562-3.716,1.245-7.544,0.968-10.923
			C274.918,187.571,274.827,186.455,274.832,185.486z"/>
		<path style="fill:#9A9A9A;" d="M274.226,184.493c0.027-5.534-0.683-10.966-1.368-16.221c-0.133-1.021-0.267-2.04-0.395-3.058
			c-1.875-15.02-5.141-30.02-8.349-44.558c3.412-4.838,4.863-11.122,3.726-16.659c-0.261-1.271-0.472-2.492-0.678-3.678
			c-0.86-4.96-1.749-10.088-5.607-15.402c-4.874-6.733-12.914-6.969-19.375-7.158c-0.878-0.026-1.743-0.052-2.583-0.093
			l-1.067-0.211c-2.077-0.412-4.227-0.838-6.296-1.014c-5.051-0.434-10.159-0.731-15.101-1.021
			c-0.947-0.056-1.893-0.111-2.839-0.167c-1.046-0.731-2.209-1.345-3.479-1.835c0.403-2.05,0.649-4.174,0.737-6.356
			c0.465-11.627-8.843-20.843-18.271-24.816c-6.665-2.81-14.58-3.581-23.056-2.29c0.005-0.255,0.011-0.523,0.017-0.802
			c0.305-15.567,2.32-19.02,3.486-19.688c2.203-1.256,3.325-3.97,2.667-6.451c-0.633-2.39-2.722-3.995-5.197-3.995
			c-0.125,0-0.311,0.006-0.436,0.016c-0.355,0.027-0.617,0.044-0.821,0.057c-1.268,0.079-1.769,0.19-2.975,0.663l-0.809,0.313
			c-1.799,0.721-2.996,2.428-3.132,4.305c-3.7,5.252-4.38,12.801-4.903,18.605c-0.088,0.979-0.169,1.892-0.262,2.707
			c-0.31,2.719-0.499,5.324-0.566,7.785c-6.734,2.765-12.944,6.979-17.102,11.67c-1.231,1.106-2.346,2.243-3.408,3.478
			c-6.079,7.107-8.753,15.55-7.549,23.318c-3.622,2.314-6.627,5.861-8.409,10.056c-0.633,0.568-1.187,1.082-1.702,1.577
			c-1.546,1.491-3.081,2.999-4.616,4.509c-3.685,3.619-7.494,7.363-11.382,10.747c-16.91,14.721-31.317,32.529-45.251,49.752
			c-3.067,3.791-6.122,7.567-9.189,11.294c-1.881,2.284-3.744,4.591-5.609,6.9c-6.919,8.563-14.073,17.416-22.102,24.935
			l-0.121,0.114c-6.82,6.384-18.196,17.053-12.727,29.854c0.307,0.719,0.714,1.357,1.212,1.895c1.338,3.163,3.17,4.765,4.827,5.563
			c0.213,1.452,0.311,3.026,0.411,4.655c0.101,1.619,0.205,3.293,0.433,4.945c0.894,6.521,1.942,12.383,3.205,17.921
			c0.902,3.929,1.858,7.894,2.785,11.729c1.725,7.146,3.509,14.534,4.956,21.828c0.174,0.876,0.341,1.819,0.516,2.805
			c1.184,6.702,2.658,15.044,8.579,19.698c1.613,1.272,3.61,1.942,5.774,1.942c2.445,0,4.701-0.83,6.583-1.642
			c1.741-0.749,3.186-2.023,4.345-3.047c0.319-0.281,0.622-0.554,0.903-0.778c0.598-0.475,2.213-0.878,3.511-1.201
			c0.372-0.093,0.744-0.186,1.11-0.282c0.051,0.001,0.104,0.001,0.154,0.001c0,0,0,0,0.001,0c3.983,0,7.375-1.659,10.366-3.124
			l0.826-0.402c6.203-3.007,12.341-6.083,19.146-9.505c7.465-3.755,14.849-7.854,21.989-11.817
			c4.851-2.692,9.866-5.477,14.836-8.112c23.396-12.409,50.94-27.308,77.843-43.714c14.046-8.567,27.126-16.186,39.983-23.29
			c5.887-3.253,11.614-6.789,17.151-10.207l1.459-0.901c0.493-0.305,1.683-0.682,2.731-1.014c3.295-1.044,7.807-2.472,9.675-6.941
			c1.562-3.715,1.246-7.543,0.969-10.922C274.313,186.578,274.221,185.463,274.226,184.493z"/>
		<path style="fill:#8B8B8B;" d="M273.619,183.501c0.026-5.535-0.684-10.967-1.369-16.221c-0.132-1.021-0.267-2.041-0.393-3.059
			c-1.876-15.02-5.142-30.02-8.349-44.558c3.411-4.837,4.863-11.121,3.725-16.659c-0.26-1.271-0.472-2.492-0.677-3.677
			c-0.86-4.96-1.748-10.089-5.607-15.403c-4.875-6.732-12.915-6.969-19.376-7.158c-0.877-0.025-1.742-0.051-2.583-0.093l-1.067-0.21
			c-2.077-0.412-4.227-0.839-6.296-1.014c-5.051-0.434-10.159-0.732-15.101-1.021c-0.945-0.055-1.892-0.11-2.838-0.167
			c-1.046-0.731-2.209-1.345-3.48-1.834c0.403-2.051,0.65-4.174,0.737-6.356c0.465-11.628-8.843-20.843-18.27-24.816
			c-6.665-2.81-14.581-3.582-23.057-2.291c0.006-0.255,0.012-0.523,0.017-0.801c0.306-15.567,2.32-19.021,3.486-19.689
			c2.204-1.255,3.325-3.969,2.667-6.451c-0.633-2.39-2.722-3.995-5.197-3.995c-0.125,0-0.311,0.007-0.436,0.017
			c-0.355,0.027-0.617,0.043-0.821,0.057c-1.268,0.078-1.768,0.19-2.975,0.663l-0.809,0.313c-1.798,0.72-2.996,2.428-3.132,4.304
			c-3.7,5.252-4.38,12.801-4.902,18.605c-0.089,0.979-0.17,1.892-0.263,2.708c-0.309,2.718-0.498,5.324-0.565,7.784
			c-6.733,2.765-12.943,6.979-17.102,11.67c-1.23,1.107-2.344,2.243-3.407,3.479c-6.08,7.107-8.753,15.551-7.55,23.319
			c-3.622,2.314-6.627,5.86-8.408,10.055c-0.632,0.568-1.188,1.082-1.702,1.577c-1.546,1.491-3.082,2.999-4.617,4.51
			c-3.685,3.619-7.493,7.362-11.381,10.746c-16.911,14.722-31.318,32.53-45.252,49.753c-3.067,3.79-6.122,7.567-9.189,11.294
			c-1.881,2.283-3.743,4.59-5.609,6.898c-6.919,8.563-14.072,17.417-22.101,24.937l-0.121,0.113
			c-6.82,6.385-18.204,17.058-12.727,29.854c0.308,0.72,0.715,1.357,1.212,1.895c1.338,3.163,3.171,4.766,4.829,5.564
			c0.211,1.452,0.309,3.026,0.411,4.656c0.099,1.619,0.203,3.293,0.431,4.944c0.895,6.522,1.942,12.383,3.206,17.922
			c0.901,3.928,1.859,7.893,2.785,11.728c1.725,7.146,3.509,14.535,4.956,21.829c0.174,0.875,0.34,1.818,0.515,2.804
			c1.184,6.703,2.659,15.045,8.579,19.698c1.613,1.272,3.61,1.943,5.774,1.943c2.445,0,4.702-0.831,6.583-1.642
			c1.742-0.75,3.186-2.023,4.345-3.048c0.32-0.281,0.624-0.553,0.904-0.777c0.599-0.476,2.213-0.878,3.51-1.201
			c0.373-0.093,0.744-0.185,1.11-0.282c0.052,0.001,0.104,0.001,0.154,0.001h0.001c3.983,0,7.376-1.66,10.366-3.124l0.826-0.402
			c6.203-3.007,12.341-6.084,19.147-9.505c7.464-3.756,14.848-7.854,21.988-11.817c4.852-2.693,9.867-5.478,14.837-8.112
			c23.395-12.409,50.939-27.308,77.842-43.715c14.047-8.567,27.127-16.185,39.983-23.289c5.887-3.253,11.614-6.789,17.152-10.208
			l1.459-0.9c0.493-0.306,1.683-0.683,2.73-1.014c3.295-1.044,7.808-2.473,9.675-6.941c1.561-3.715,1.247-7.543,0.969-10.922
			C273.706,185.586,273.613,184.47,273.619,183.501z"/>
		<path style="fill:#7D7D7D;" d="M273.013,182.508c0.026-5.534-0.684-10.966-1.369-16.221c-0.133-1.02-0.266-2.04-0.393-3.058
			c-1.877-15.021-5.143-30.02-8.351-44.558c3.412-4.838,4.863-11.122,3.726-16.659c-0.261-1.271-0.472-2.493-0.678-3.678
			c-0.859-4.96-1.748-10.088-5.607-15.402c-4.875-6.733-12.914-6.969-19.374-7.158c-0.879-0.026-1.743-0.052-2.584-0.094
			l-1.068-0.21c-2.076-0.412-4.226-0.838-6.294-1.014c-5.051-0.434-10.16-0.732-15.101-1.021c-0.946-0.056-1.893-0.111-2.838-0.167
			c-1.047-0.731-2.209-1.346-3.48-1.835c0.402-2.05,0.65-4.174,0.738-6.356c0.464-11.628-8.843-20.843-18.273-24.816
			c-6.664-2.81-14.579-3.581-23.055-2.29c0.005-0.255,0.011-0.523,0.017-0.802c0.305-15.567,2.32-19.02,3.487-19.687
			c2.203-1.256,3.324-3.97,2.665-6.451c-0.632-2.39-2.721-3.996-5.195-3.996c-0.125,0-0.311,0.007-0.436,0.017
			c-0.355,0.027-0.617,0.044-0.821,0.057c-1.268,0.079-1.769,0.19-2.974,0.663l-0.81,0.312c-1.799,0.72-2.997,2.428-3.133,4.305
			c-3.698,5.252-4.379,12.801-4.901,18.605c-0.089,0.979-0.17,1.892-0.263,2.707c-0.309,2.719-0.498,5.324-0.566,7.784
			c-6.733,2.766-12.942,6.98-17.1,11.671c-1.23,1.106-2.346,2.243-3.409,3.479c-6.079,7.107-8.752,15.55-7.548,23.318
			c-3.623,2.314-6.628,5.861-8.409,10.056c-0.634,0.568-1.188,1.081-1.702,1.577c-1.546,1.491-3.082,2.999-4.617,4.509
			c-3.684,3.619-7.493,7.363-11.383,10.747c-16.909,14.721-31.317,32.529-45.249,49.752c-3.067,3.791-6.123,7.567-9.189,11.294
			c-1.882,2.284-3.746,4.591-5.61,6.899c-6.919,8.563-14.073,17.416-22.102,24.936l-0.121,0.113
			c-6.82,6.385-18.196,17.054-12.726,29.855c0.307,0.719,0.715,1.356,1.213,1.895c1.337,3.163,3.17,4.765,4.827,5.563
			c0.212,1.452,0.31,3.026,0.41,4.655c0.101,1.619,0.205,3.293,0.432,4.945c0.896,6.521,1.944,12.383,3.208,17.921
			c0.9,3.929,1.858,7.893,2.783,11.729c1.726,7.145,3.51,14.534,4.955,21.828c0.176,0.876,0.343,1.819,0.516,2.805
			c1.186,6.702,2.66,15.044,8.58,19.698c1.613,1.271,3.61,1.942,5.775,1.942c2.444,0,4.701-0.83,6.582-1.642
			c1.742-0.749,3.185-2.023,4.345-3.047c0.319-0.281,0.623-0.555,0.903-0.778c0.598-0.478,2.214-0.878,3.512-1.201
			c0.372-0.093,0.743-0.186,1.109-0.282c0.052,0.001,0.104,0.001,0.155,0.001h0.001c3.982,0,7.374-1.659,10.365-3.124l0.826-0.402
			c6.204-3.007,12.341-6.083,19.146-9.505c7.465-3.755,14.849-7.854,21.989-11.817c4.852-2.692,9.867-5.477,14.836-8.112
			c23.397-12.409,50.94-27.308,77.843-43.714c14.047-8.567,27.126-16.186,39.983-23.29c5.887-3.253,11.614-6.789,17.152-10.208
			l1.459-0.9c0.493-0.305,1.682-0.682,2.729-1.014c3.297-1.044,7.809-2.473,9.677-6.94c1.56-3.715,1.245-7.543,0.968-10.922
			C273.099,184.593,273.007,183.477,273.013,182.508z"/>
		<path style="fill:#6E6E6E;" d="M272.405,181.516c0.027-5.535-0.682-10.967-1.369-16.222c-0.132-1.02-0.266-2.041-0.393-3.058
			c-1.877-15.02-5.141-30.02-8.35-44.558c3.411-4.837,4.863-11.121,3.725-16.659c-0.26-1.271-0.472-2.492-0.677-3.678
			c-0.859-4.959-1.748-10.088-5.608-15.402c-4.872-6.733-12.913-6.969-19.373-7.158c-0.878-0.025-1.743-0.051-2.584-0.093
			l-1.067-0.21c-2.078-0.412-4.227-0.839-6.296-1.014c-5.05-0.435-10.159-0.732-15.102-1.021c-0.946-0.055-1.891-0.11-2.837-0.167
			c-1.048-0.731-2.209-1.345-3.479-1.835c0.403-2.05,0.65-4.173,0.738-6.355c0.463-11.628-8.844-20.843-18.272-24.816
			c-6.665-2.81-14.58-3.582-23.056-2.291c0.006-0.255,0.01-0.522,0.016-0.801c0.306-15.567,2.322-19.021,3.488-19.688
			c2.202-1.255,3.324-3.969,2.666-6.451c-0.633-2.39-2.723-3.995-5.196-3.995c-0.125,0-0.312,0.008-0.437,0.017
			c-0.354,0.028-0.617,0.043-0.821,0.057c-1.267,0.078-1.768,0.19-2.974,0.663l-0.81,0.313c-1.8,0.72-2.996,2.428-3.131,4.304
			c-3.701,5.252-4.382,12.801-4.904,18.605c-0.087,0.979-0.169,1.892-0.262,2.707c-0.31,2.719-0.499,5.325-0.566,7.785
			c-6.735,2.764-12.944,6.979-17.102,11.67c-1.23,1.106-2.346,2.243-3.408,3.479c-6.079,7.107-8.753,15.551-7.548,23.319
			c-3.623,2.313-6.627,5.86-8.409,10.055c-0.634,0.568-1.186,1.082-1.703,1.577c-1.546,1.491-3.08,2.999-4.617,4.509
			c-3.683,3.62-7.492,7.363-11.381,10.747c-16.911,14.722-31.317,32.53-45.251,49.752c-3.067,3.791-6.121,7.568-9.19,11.295
			c-1.881,2.283-3.745,4.589-5.61,6.898c-6.918,8.563-14.073,17.417-22.102,24.936l-0.121,0.114
			c-6.819,6.385-18.195,17.054-12.727,29.854c0.308,0.72,0.717,1.357,1.213,1.895c1.339,3.163,3.171,4.765,4.828,5.563
			c0.211,1.452,0.309,3.026,0.41,4.656c0.102,1.618,0.206,3.292,0.432,4.944c0.894,6.522,1.943,12.383,3.207,17.922
			c0.901,3.928,1.859,7.894,2.784,11.727c1.725,7.147,3.509,14.535,4.956,21.829c0.175,0.875,0.342,1.818,0.515,2.804
			c1.185,6.703,2.66,15.045,8.581,19.698c1.613,1.271,3.608,1.943,5.774,1.943c2.445,0,4.701-0.831,6.583-1.642
			c1.741-0.75,3.185-2.023,4.346-3.048c0.318-0.281,0.623-0.553,0.903-0.777c0.598-0.476,2.213-0.878,3.51-1.201
			c0.372-0.093,0.744-0.186,1.11-0.282c0.052,0.001,0.104,0.001,0.155,0.001c0,0,0,0,0.001,0c3.982,0,7.374-1.661,10.365-3.124
			l0.825-0.403c6.204-3.006,12.342-6.083,19.148-9.505c7.465-3.755,14.849-7.853,21.989-11.816c4.85-2.693,9.866-5.478,14.836-8.113
			c23.396-12.408,50.939-27.308,77.841-43.714c14.048-8.567,27.126-16.185,39.983-23.289c5.888-3.253,11.614-6.789,17.152-10.209
			l1.459-0.9c0.494-0.305,1.683-0.682,2.731-1.013c3.296-1.044,7.808-2.473,9.675-6.941c1.562-3.715,1.246-7.543,0.968-10.923
			C272.492,183.601,272.4,182.484,272.405,181.516z"/>
		<path style="fill:#606060;" d="M271.799,180.523c0.026-5.535-0.683-10.967-1.368-16.221c-0.133-1.02-0.267-2.041-0.394-3.058
			c-1.877-15.02-5.142-30.02-8.35-44.558c3.412-4.838,4.863-11.122,3.725-16.66c-0.26-1.271-0.472-2.492-0.677-3.677
			c-0.86-4.96-1.749-10.089-5.607-15.402c-4.874-6.733-12.914-6.97-19.375-7.159c-0.878-0.025-1.743-0.051-2.583-0.093l-1.067-0.21
			c-2.077-0.412-4.227-0.838-6.296-1.014c-5.051-0.434-10.159-0.733-15.102-1.021c-0.946-0.055-1.892-0.11-2.838-0.166
			c-1.047-0.732-2.209-1.346-3.48-1.835c0.404-2.05,0.651-4.174,0.738-6.356c0.464-11.628-8.843-20.843-18.271-24.816
			c-6.665-2.81-14.581-3.582-23.056-2.29c0.005-0.255,0.011-0.523,0.016-0.802c0.306-15.567,2.321-19.021,3.487-19.688
			c2.203-1.255,3.325-3.969,2.667-6.45c-0.633-2.391-2.722-3.996-5.197-3.996c-0.125,0-0.311,0.007-0.436,0.017
			c-0.355,0.027-0.618,0.043-0.821,0.057c-1.268,0.079-1.769,0.19-2.975,0.663l-0.809,0.313c-1.799,0.72-2.996,2.428-3.132,4.305
			c-3.7,5.251-4.38,12.8-4.903,18.605c-0.088,0.979-0.169,1.892-0.263,2.707c-0.309,2.719-0.498,5.324-0.565,7.784
			c-6.733,2.766-12.943,6.979-17.101,11.671c-1.23,1.106-2.346,2.243-3.408,3.479c-6.08,7.107-8.753,15.55-7.549,23.318
			c-3.622,2.314-6.627,5.86-8.409,10.056c-0.633,0.568-1.187,1.081-1.702,1.577c-1.546,1.49-3.081,2.999-4.617,4.509
			c-3.684,3.619-7.492,7.363-11.381,10.746c-16.911,14.722-31.317,32.53-45.251,49.753c-3.067,3.791-6.122,7.567-9.189,11.294
			c-1.881,2.284-3.744,4.591-5.609,6.899c-6.919,8.562-14.074,17.416-22.102,24.936l-0.122,0.113
			c-6.82,6.385-18.234,17.071-12.726,29.855c0.305,0.72,0.715,1.357,1.212,1.895c1.338,3.163,3.171,4.765,4.827,5.563
			c0.213,1.452,0.31,3.026,0.411,4.655c0.101,1.619,0.205,3.293,0.433,4.945c0.894,6.521,1.942,12.382,3.206,17.921
			c0.9,3.929,1.858,7.894,2.784,11.729c1.725,7.146,3.51,14.534,4.956,21.828c0.174,0.876,0.341,1.819,0.516,2.804
			c1.184,6.703,2.658,15.045,8.579,19.699c1.613,1.271,3.61,1.942,5.774,1.942c2.445,0,4.701-0.831,6.582-1.642
			c1.742-0.749,3.187-2.023,4.346-3.047c0.319-0.282,0.623-0.554,0.903-0.778c0.598-0.476,2.213-0.878,3.511-1.201
			c0.372-0.093,0.744-0.185,1.11-0.282c0.051,0.001,0.104,0.001,0.154,0.001h0.001c3.983,0,7.374-1.659,10.366-3.124l0.826-0.402
			c6.203-3.007,12.341-6.083,19.146-9.505c7.465-3.755,14.849-7.854,21.989-11.817c4.851-2.693,9.866-5.477,14.836-8.112
			c23.397-12.409,50.94-27.308,77.843-43.715c14.047-8.566,27.126-16.185,39.982-23.289c5.888-3.253,11.615-6.789,17.152-10.208
			l1.459-0.9c0.493-0.305,1.683-0.683,2.73-1.014c3.296-1.044,7.808-2.473,9.676-6.94c1.561-3.716,1.246-7.543,0.968-10.922
			C271.885,182.607,271.793,181.491,271.799,180.523z"/>
	</g>
	<path style="fill:#FFFFFF;" d="M271.799,180.523c0.026-5.535-0.683-10.967-1.368-16.221c-0.133-1.02-0.267-2.041-0.394-3.058
		c-1.877-15.02-5.142-30.02-8.35-44.558c3.412-4.838,4.863-11.122,3.725-16.66c-0.26-1.271-0.472-2.492-0.677-3.677
		c-0.86-4.96-1.749-10.089-5.607-15.402c-4.874-6.733-12.914-6.97-19.375-7.159c-0.878-0.025-1.743-0.051-2.583-0.093l-1.067-0.21
		c-2.077-0.412-4.227-0.838-6.296-1.014c-5.051-0.434-10.159-0.733-15.102-1.021c-0.946-0.055-1.892-0.11-2.838-0.166
		c-1.047-0.732-2.209-1.346-3.48-1.835c0.404-2.05,0.651-4.174,0.738-6.356c0.464-11.628-8.843-20.843-18.271-24.816
		c-6.665-2.81-14.581-3.582-23.056-2.29c0.005-0.255,0.011-0.523,0.016-0.802c0.306-15.567,2.321-19.021,3.487-19.688
		c2.203-1.255,3.325-3.969,2.667-6.45c-0.633-2.391-2.722-3.996-5.197-3.996c-0.125,0-0.311,0.007-0.436,0.017
		c-0.355,0.027-0.618,0.043-0.821,0.057c-1.268,0.079-1.769,0.19-2.975,0.663l-0.809,0.313c-1.799,0.72-2.996,2.428-3.132,4.305
		c-3.7,5.251-4.38,12.8-4.903,18.605c-0.088,0.979-0.169,1.892-0.263,2.707c-0.309,2.719-0.498,5.324-0.565,7.784
		c-6.733,2.766-12.943,6.979-17.101,11.671c-1.23,1.106-2.346,2.243-3.408,3.479c-6.08,7.107-8.753,15.55-7.549,23.318
		c-3.622,2.314-6.627,5.86-8.409,10.056c-0.633,0.568-1.187,1.081-1.702,1.577c-1.546,1.49-3.081,2.999-4.617,4.509
		c-3.684,3.619-7.492,7.363-11.381,10.746c-16.911,14.722-31.317,32.53-45.251,49.753c-3.067,3.791-6.122,7.567-9.189,11.294
		c-1.881,2.284-3.744,4.591-5.609,6.899c-6.919,8.562-14.074,17.416-22.102,24.936l-0.122,0.113
		c-6.82,6.385-18.234,17.071-12.726,29.855c0.305,0.72,0.715,1.357,1.212,1.895c1.338,3.163,3.171,4.765,4.827,5.563
		c0.213,1.452,0.31,3.026,0.411,4.655c0.101,1.619,0.205,3.293,0.433,4.945c0.894,6.521,1.942,12.382,3.206,17.921
		c0.9,3.929,1.858,7.894,2.784,11.729c1.725,7.146,3.51,14.534,4.956,21.828c0.174,0.876,0.341,1.819,0.516,2.804
		c1.184,6.703,2.658,15.045,8.579,19.699c1.613,1.271,3.61,1.942,5.774,1.942c2.445,0,4.701-0.831,6.582-1.642
		c1.742-0.749,3.187-2.023,4.346-3.047c0.319-0.282,0.623-0.554,0.903-0.778c0.598-0.476,2.213-0.878,3.511-1.201
		c0.372-0.093,0.744-0.185,1.11-0.282c0.051,0.001,0.104,0.001,0.154,0.001h0.001c3.983,0,7.374-1.659,10.366-3.124l0.826-0.402
		c6.203-3.007,12.341-6.083,19.146-9.505c7.465-3.755,14.849-7.854,21.989-11.817c4.851-2.693,9.866-5.477,14.836-8.112
		c23.397-12.409,50.94-27.308,77.843-43.715c14.047-8.566,27.126-16.185,39.982-23.289c5.888-3.253,11.615-6.789,17.152-10.208
		l1.459-0.9c0.493-0.305,1.683-0.683,2.73-1.014c3.296-1.044,7.808-2.473,9.676-6.94c1.561-3.716,1.246-7.543,0.968-10.922
		C271.885,182.607,271.793,181.491,271.799,180.523z"/>
	<g>
		<g>
			<g>
				<path d="M256.452,115.475c3.439-3.765,5.233-9.485,4.209-14.474c-1.321-6.447-1.437-11.665-5.462-17.21
					c-4.095-5.657-12.144-4.903-18.629-5.271c-2.479-0.478-4.95-1.027-7.179-1.217c-6.795-0.583-13.605-0.911-20.407-1.334
					c-15.182-0.938-30.325,0.822-45.482-1.407c-11.661-1.719-20.502-1.979-29.545,6.536c-4.457,4.204-9.488,7.756-13.892,11.994
					c-5.355,5.161-10.574,10.543-16.18,15.422c-20.256,17.634-36.878,39.815-53.882,60.471c-9.059,11-17.711,22.524-28.14,32.293
					c-6.521,6.104-15.894,14.794-11.698,24.534c0.196,0.462,0.491,0.712,0.812,0.813c0.796,2.449,2.307,4.975,4.775,4.357
					c1.349,4.121,1.058,8.912,1.637,13.123c0.806,5.877,1.81,11.716,3.129,17.496c2.58,11.252,5.525,22.384,7.769,33.694
					c1.222,6.141,2.097,15.518,7.339,19.639c2.203,1.735,5.251,0.599,7.44-0.345c1.438-0.617,2.93-2.193,4.144-3.164
					c1.85-1.472,4.658-1.867,7.087-2.565c3.43,0.267,6.601-1.475,9.786-3.015c6.392-3.098,12.736-6.282,19.082-9.473
					c12.435-6.256,24.416-13.349,36.732-19.881c26.288-13.944,52.16-28.063,77.59-43.57c13.224-8.065,26.602-15.901,40.163-23.395
					c6.284-3.473,12.296-7.22,18.404-10.988c2.918-1.805,8.954-2.042,10.487-5.708c1.572-3.743,0.383-8.404,0.405-12.333
					c0.03-6.244-0.951-12.47-1.726-18.653C263.279,146.276,259.836,130.8,256.452,115.475z"/>
				<path style="fill:#AF623F;" d="M262.7,190.358c-0.006,0.581-11.492,6.107-12.382,6.67c-5.392,3.458-10.937,6.525-16.543,9.605
					c-12.854,7.074-25.494,14.535-38.05,22.124c-12.069,7.3-23.964,14.846-36.439,21.446c-11.526,6.103-23.558,11.941-34.765,18.606
					c-10.744,6.393-22.259,11.375-32.706,18.29c-5.136,3.398-11.431,5.712-16.923,8.503c-4.912,2.502-15.937,10.122-21.652,9.074
					c-1.217-0.222-2.19,0.851-2.33,1.917c-0.946,0.207-1.879,0.472-2.798,0.848c-4.655,1.915-10.488,8.338-12.802-1.487
					c-2.12-9.013-3.469-18.23-5.932-27.158c-2.586-9.359-5.591-18.608-7.619-28.113c-1.248-5.857-1.126-14.963-4.893-20.169
					c0.012-0.016,0.024-0.018,0.045-0.026c2.998-1.775,8.755-1.169,12.213-1.487c3.224-0.294,6.134-0.733,9.035-2.173
					c2.433-1.211,5.634-2.775,7.271-5.081c2.394-3.363,3.189-7.146,6.153-10.214c6.731-6.962,19.026-5.392,27.528-5.941
					c7.296-0.462,15.487-2.347,21.888-5.833c4.354-2.37,5.05-6.625,10.906-6.972c4.386-0.266,8.692,1.119,12.967,1.807
					c6.888,1.106,12.037-1.389,17.156-5.692c3.597-3.027,7.164-6.078,10.877-8.971c3.232-2.527,7.169-4.186,10.164-7.03
					c6.303-5.982,9.912-19.94,20.115-18.56c5.551,0.752,13.983-0.669,18.735-3.65c2.266-1.423,4.178-5.008,5.701-6.963
					c3.307-4.241,6.995-8.038,10.785-11.854c7.116-7.146,14.406-16.786,25.715-12.911c3.787,1.294,7.275,0.492,10.084-1.497
					C255.77,141.883,263.068,165.79,262.7,190.358z"/>
				<path style="opacity:0.6;fill:#D6A47E;" d="M254.206,117.466c-2.809,1.989-6.297,2.791-10.084,1.497
					c-11.309-3.875-18.599,5.765-25.715,12.911c-3.79,3.815-7.479,7.612-10.785,11.854c-1.523,1.955-3.436,5.54-5.701,6.963
					c-4.752,2.982-13.184,4.402-18.735,3.65c-10.203-1.381-13.813,12.578-20.115,18.56c-2.995,2.845-6.932,4.503-10.164,7.03
					c-3.713,2.893-7.28,5.943-10.877,8.971c-5.119,4.304-10.268,6.799-17.156,5.692c-4.274-0.688-8.581-2.072-12.967-1.807
					c-5.857,0.347-6.553,4.602-10.906,6.972c-6.4,3.486-14.592,5.371-21.888,5.833c-8.502,0.55-20.797-1.02-27.528,5.941
					c-2.965,3.067-3.76,6.851-6.153,10.214c-1.637,2.306-4.838,3.87-7.271,5.081c-2.901,1.439-5.811,1.879-9.035,2.173
					c-3.458,0.318-9.215-0.288-12.213,1.487c-0.021,0.009-0.033,0.011-0.045,0.026c0.791,1.093,1.396,2.37,1.897,3.737
					c6.598,0.687,13.245-0.553,19.839-1.409c1.643-0.214,2.641,0.707,2.995,1.874c3.953-4.164,7.29-8.785,11.928-12.504
					c12.82-10.276,28.263,0.011,39.519-13.891c1.794-2.213,5.27-4.026,8.576-4.341c0.818-0.549,1.62-1.038,2.288-1.447
					c6.305-3.855,11.519-4.46,18.739-2.429c4.514,1.271,9.607,3.279,14.306,1.631c6.247-2.193,11.5-6.432,15.933-11.274
					c10.268-11.219,20.217-32.758,38.19-28.592c23.797,5.507,21.985-25.264,39.007-33.611c16.653-8.161,18.126,16.609,18.797,26.834
					c0.888,13.575,13.296,27.407-0.169,38.237c-12.158,9.78-27.076,14.402-40.787,21.401c-21.442,10.952-40.272,25.76-58.937,40.834
					c3.455-1.778,6.899-3.559,10.298-5.361c12.476-6.601,24.37-14.146,36.439-21.446c12.556-7.589,25.196-15.05,38.05-22.124
					c5.606-3.08,11.151-6.148,16.543-9.605c0.89-0.563,12.376-6.089,12.382-6.67C263.068,165.79,255.77,141.883,254.206,117.466z"/>
				<path style="fill:#F2ACBE;" d="M254.607,113.062c-0.025,0.017-0.058,0.037-0.087,0.063c-1.161,0.839-2.514,1.536-3.934,2.169
					c-2.772,1.229-5.456-0.051-8.127-0.925c-4.861-1.601-11.567,2.396-15.495,4.853c-2.77,1.74-4.926,4.535-6.939,7.051
					c-2.495,3.12-5.773,5.76-8.602,8.577c-2.698,2.691-5.218,5.531-7.974,8.169c-3.589,3.448-6.515,3.808-11.28,4.765
					c-5.23,1.046-11.151,0.313-15.96,2.808c-5.271,2.729-8.052,10.85-11.079,15.48c-4.013,6.135-11.178,9.294-16.67,13.919
					c-7.373,6.206-13.434,12.494-23.875,9.721c-5.041-1.332-11.722-2.87-16.861-1.165c-2.465,0.818-4.328,2.658-6.073,4.471
					c-4.282,4.43-8.662,5.707-14.39,7.071c-13.155,3.143-28.908-0.505-39.438,10.12c-1.628,1.637-2.589,3.732-3.446,5.833
					c-1.781,4.367-6.472,7.338-10.959,8.634c-3.685,1.061-7.699,1.401-11.479,2.004c-3.82,0.608-7.554,1.459-8.238-3.348
					c-0.063-0.441-0.226-0.748-0.452-0.947c-0.254-7.107,4.016-12.192,8.817-17.311c4.508-4.814,8.994-9.666,13.411-14.569
					c8.396-9.312,15.997-19.284,24.395-28.587c16.347-18.127,31.771-37.875,50.511-53.624c4.282-3.605,8.217-8.17,12.272-12.08
					c4.416-4.253,9.538-7.648,13.888-11.988c10.435-10.422,25.187-4.712,38.141-3.888c12.996,0.82,25.991-0.544,38.982-0.655
					c6.02-0.052,12.029-0.059,18.053,0.047c1.446,0.028,2.994,0.195,4.565,0.334c5.572,1.813,11.813,2.443,15.983,6.682
					c4.604,4.682,5.386,12.542,5.933,18.746C258.51,109.027,256.963,111.339,254.607,113.062z"/>
				<path style="fill:#F2ACBE;" d="M252.267,86.742c-4.171-4.238-10.411-4.869-15.983-6.682c-1.571-0.139-3.119-0.306-4.565-0.334
					c-6.023-0.105-12.033-0.099-18.053-0.047c-12.99,0.111-25.985,1.476-38.982,0.655c-12.954-0.824-27.706-6.534-38.141,3.888
					c-4.35,4.34-9.472,7.735-13.888,11.988c-4.056,3.91-7.99,8.475-12.272,12.08c-6.847,5.752-13.237,12.041-19.403,18.589
					c8.502-7.252,20.543-15.725,27.171-10.621c1.731,1.33,2.771,2.687,3.947,4.547c4.177,6.618,11.082,8.152,18.727,7.29
					c11.695-1.322,22.808-4.929,33.589-9.544c13.979-5.983,43.553-12.334,41.563-31.671c-0.206-2.011,1.42-3.39,3.335-3.269
					c9.67,0.618,26.087-2.205,30.943,8.037c3.664,7.737,0.857,12.508-5.854,17.102c-11.051,7.562-24.24,9.874-34.439,19.143
					c-9.935,9.02-15.273,17.248-29.069,19.931c-12.359,2.4-22.102,4.251-30.841,14.191c-3.874,4.409-7.601,8.4-12.268,11.978
					c-9.413,7.201-20.896-2.604-31.369,5.551c-9.837,7.661-18.557,14.683-30.896,17.871c-14.389,3.729-25.53,6.379-36.931,16.452
					c-0.772,0.682-2.022,0.752-2.94,0.366c-0.319-0.04-0.634-0.082-0.955-0.124c-2.367,5.061-7.95,10.101-13.434,9.299
					c-4.035-0.593-6.355-2.511-7.605-5.07c-0.282,1.281-0.451,2.615-0.403,4.045c0.227,0.199,0.39,0.506,0.452,0.947
					c0.685,4.807,4.418,3.956,8.238,3.348c3.78-0.603,7.795-0.943,11.479-2.004c4.487-1.296,9.178-4.267,10.959-8.634
					c0.857-2.101,1.818-4.196,3.446-5.833c10.529-10.625,26.282-6.977,39.438-10.12c5.728-1.364,10.107-2.642,14.39-7.071
					c1.745-1.813,3.608-3.652,6.073-4.471c5.14-1.705,11.82-0.167,16.861,1.165c10.441,2.773,16.502-3.515,23.875-9.721
					c5.492-4.625,12.657-7.784,16.67-13.919c3.027-4.631,5.809-12.752,11.079-15.48c4.809-2.495,10.729-1.762,15.96-2.808
					c4.766-0.957,7.691-1.316,11.28-4.765c2.756-2.638,5.275-5.478,7.974-8.169c2.828-2.817,6.106-5.457,8.602-8.577
					c2.014-2.516,4.17-5.311,6.939-7.051c3.928-2.456,10.634-6.453,15.495-4.853c2.671,0.874,5.354,2.154,8.127,0.925
					c1.42-0.633,2.773-1.33,3.934-2.169c0.029-0.025,0.063-0.046,0.087-0.063c2.355-1.723,3.902-4.034,3.592-7.573
					C257.652,99.284,256.87,91.424,252.267,86.742z"/>
				<path d="M225.07,106.595c-30.956,16.958-62.979,31.828-93.934,48.782c-15.925,8.725-32.208,16.756-48.26,25.247
					c-7.591,4.013-15.235,7.906-22.92,11.738C51.711,196.47,43.837,202.466,35,205.245c-0.198,0.059-0.187,0.401,0.048,0.347
					c6.589-1.453,12.971-4.966,18.962-8.006c8.334-4.236,16.906-8.013,25.309-12.118c17.066-8.339,34.197-16.634,50.914-25.648
					c15.41-8.306,30.545-17.101,45.908-25.487c16.41-8.959,33.217-17.343,49.293-26.884
					C225.942,107.143,225.678,106.264,225.07,106.595z"/>
			</g>
			<g>
				<g>
					<path d="M188.97,42.746c-8.836-3.726-19.137-2.918-28.146-0.224c-6.814,2.042-14.632,6.341-19.605,12.069
						c-1.099,0.973-2.153,2.025-3.173,3.21c-5.951,6.958-8.987,16.378-4.678,24.96c4.267,8.491,18.142,12.302,26.727,13.205
						c10.781,1.135,21.864-1.616,30.629-7.921c8.713-6.258,13.135-14.56,13.558-25.146C204.648,53.698,196.878,46.078,188.97,42.746
						z"/>
					<path style="fill:#D32315;" d="M189.228,84.507c-14.134,10.276-33.566,8.262-48.034,0.131
						c-10.205-5.732-7.895-17.161-2.413-25.279c0.133-0.026,0.267-0.098,0.38-0.254c8.653-11.776,28.903-17.656,42.955-14.866
						c8.394,1.662,15.341,6.061,18.836,14.09C205.368,68.462,196.782,79.019,189.228,84.507z"/>
					<path style="fill:#8D1816;" d="M200.951,58.328c-3.495-8.029-10.442-12.428-18.836-14.09c-1.86-0.371-3.829-0.577-5.865-0.649
						c2.392,0.642,4.732,1.494,6.959,2.554c0.975,0.458,1.341,1.688,0.661,2.567c-2.056,2.657-8.184,2.788-11.115,3.324
						c-6.833,1.264-14.122,2.225-20.542,4.974c-2.442,1.05-8.695,4.94-2.837,7.157c3.867,1.463,8.329,0.779,12.246-0.167
						c7.842-1.901,16.563-4.812,23.159-9.608c0.591-0.427,1.195-0.389,1.696-0.131c0.999-0.737,2.391-0.248,2.649,1.05
						c2.631,13.189-16.196,17.327-31.149,17.767c-3.611,0.653-7.135,0.879-10.344,0.528c-7.134-0.778-10.55-4.497-11.563-9.326
						c-3.193,7.331-3.149,15.717,5.122,20.36c14.469,8.131,33.9,10.146,48.034-0.131C196.782,79.019,205.368,68.462,200.951,58.328z
						"/>
					<path d="M176.614,52.715c-1.835,0.962-6.574,2.895-11.518,4.15c-1.764-6.702-2.347-13.216-2.165-20.211
						c0.16-6.071-0.023-21.94,5.969-25.371c0.528-0.302,0.614-1.441-0.189-1.381c-2.077,0.161-1.246-0.03-3.177,0.699
						c-0.109,0.043-0.151,0.242,0.003,0.25c0.358,0.066,0.709,0.136,1.067,0.202c-5.53,4.196-5.672,15.242-6.351,21.21
						c-0.837,7.371-1.266,18.041,2.558,25.133c-6.064,1.244-11.816,1.097-12.302-3.458c-0.037-0.347-0.494-0.233-0.568,0.03
						c-1.411,4.776,3.102,7.152,7.444,7.25c7.111,0.157,14.469-1.996,20.145-6.343C178.683,53.999,178.206,51.87,176.614,52.715z"/>
				</g>
			</g>
			<g>
				<path d="M204.936,73.436c-6.483-1.636-12.756-0.282-17.79,3.56c-0.822,0.627-2.169,1.879-2.728,3.096
					c-2.644-0.923-5.336-1.701-8.147-2.179c-5.974-1.002-10.089,1.434-13.368,4.969c-3.129-1.833-6.362-3.201-10.32-3.516
					c-3.65-0.294-6.86,0.998-8.735,3.134c-8.204-6.076-17.59-0.612-20.997,7.458c-3.562,8.422,1.612,18.58,10.918,21.374
					c1.48,2.239,3.519,4.144,5.979,5.389c12.943,6.524,31.286,2.592,42.072-5.663c1.086,0.24,2.129,0.405,3.112,0.478
					c8.316,0.621,22.072-4.825,23.921-12.809c0.091-0.415-0.145-0.677-0.466-0.756c2.832-3.41,5.087-7.243,5.191-11.508
					C213.724,80.472,211.892,75.186,204.936,73.436z"/>
				<path style="fill:#FFFFFF;" d="M203.056,102.323c-4.739,3.408-10.426,4.852-17.056,4.916
					c-5.329,0.053-17.083-3.823-18.202-9.616c-0.036-0.199-0.363-0.072-0.382,0.071c-0.9,5.75,4.869,10.146,10.909,12.341
					c-8.772,3.621-17.72,5.826-27.593,4.563c-4.796-0.612-9.368-1.911-12.625-5.263c-4.592-4.731-5.515-13.453,0.441-17.701
					c0.141-0.105,0.066-0.341-0.131-0.25c-7.076,3.176-8.618,10.227-6.458,16.309c-4.162-3.017-6.523-7.707-7.112-12.603
					c-1.103-9.238,9.348-16.347,18.608-12.131c-1.447,1.943-1.851,4.471-0.586,7.121c0.121,0.264,0.533,0.088,0.514-0.159
					c-0.566-7.845,8.589-6.559,12.677-4.991c1.307,0.504,2.566,1.106,3.821,1.731c-0.08,0.107-0.154,0.214-0.23,0.325
					c-0.114,0.155,0.048,0.406,0.242,0.235c0.134-0.119,0.266-0.232,0.402-0.347c2.136,1.103,4.209,2.317,6.253,3.501
					c4.942,2.868,10.565,4.21,16.4,3.626c0.858-0.083,1.581-1.688,0.468-1.887c-6.752-1.218-11.949-3.65-17.438-7.298
					c-0.56-0.365-1.115-0.726-1.672-1.078c0.671-0.439,1.37-0.861,2.143-1.239c5.154-2.514,11.792,0.374,16.477,2.357
					c6.472,2.729,11.705,5.252,19.004,3.908c0.898-0.167,1.699-1.683,0.498-2.006c-5.858-1.584-11.289-4.21-16.922-6.274
					c1.523-1.847,6.729-3.302,7.508-3.483c4.557-1.067,11.623-0.459,14.767,2.978C214.863,87.728,207.719,95.567,203.056,102.323z"
					/>
				<path style="fill:#DDDAD7;" d="M137.391,91.968c0.102-0.94,0.315-1.888,0.645-2.616c0.848-1.892,4.079-4.553,0.831-3.144
					c-4.121,1.792-5.751,4.659-9.043,7.181c-0.368,0.28-0.786,0.327-1.225,0.381c-0.841,0.104-1.85-0.54-1.871-1.455
					c-0.061-2.204,0.238-4.164,0.863-5.964c-2.016,2.351-3.143,5.401-2.743,8.739c0.589,4.896,2.95,9.586,7.112,12.603
					C129.921,101.937,131.249,95.353,137.391,91.968z"/>
				<path style="fill:#DDDAD7;" d="M207.781,79.98c-0.233-0.254-0.525-0.458-0.8-0.68c0.487,1.233,0.811,2.506,0.927,3.797
					c0.145,1.746-1.884,2.415-2.992,1.222c-4.062-4.352-11.185-5.899-16.736-3.906c-0.83,0.301-1.518-0.052-1.925-0.616
					c-0.297,0.224-0.555,0.453-0.748,0.689c1.334,0.489,2.66,1.016,3.982,1.546c0.43-0.111,0.907-0.055,1.365,0.292
					c0.351,0.274,0.733,0.459,1.103,0.701c3.424,1.391,6.864,2.762,10.472,3.734c0.639,0.172,0.705,0.684,0.49,1.149
					c0.772,0.267,1.543,0.528,2.318,0.813c1.573,0.58,1.165,3.043-0.455,3.206c-10.661,1.059-29.445-0.466-37.074-9.865
					c-0.417,0.131-0.848,0.243-1.258,0.438c-0.773,0.378-1.473,0.8-2.143,1.239c0.557,0.353,1.112,0.713,1.672,1.078
					c5.489,3.647,10.686,6.08,17.438,7.298c1.068,0.193,0.439,1.631-0.372,1.836c3.377,1.205,6.725,2.467,9.862,4.319
					c1.355,0.8,1.344,2.967-0.452,3.202c-13.149,1.741-24.427-5.929-35.707-11.614c-0.427,3.948,3.425,7.287,5.705,9.839
					c1.355,1.527-0.866,3.281-2.363,2.338c-3.626-2.285-6.75-4.776-9.325-8.039c-2.023,4.978,3.007,10.881,5.597,14.479
					c1.028,1.423-0.424,3.086-1.992,2.556c-7.95-2.698-15.718-8.289-16.985-17.089c-0.053-0.361-0.069-0.758-0.059-1.169
					c-4.494,4.517-3.44,12.209,0.782,16.563c3.257,3.352,7.829,4.65,12.625,5.263c9.873,1.264,18.82-0.941,27.593-4.563
					c-6.04-2.195-11.809-6.591-10.909-12.341c0.018-0.144,0.346-0.271,0.382-0.071c1.119,5.793,12.873,9.669,18.202,9.616
					c6.63-0.064,12.316-1.508,17.056-4.916C207.719,95.567,214.863,87.728,207.781,79.98z"/>
			</g>
		</g>
		<path style="opacity:0.6;fill:#C2A37E;" d="M44.939,242.683c-2.025-1.25-4.666-1.066-6.447,0.542
			c-0.351,0.313-0.577,0.667-0.804,1.018c-0.804,0.155-1.59,0.366-2.24,0.693c-1.87,0.937-3.289,3.181-3.251,5.295
			c0.063,3.589,2.734,6.408,6.226,7.039c3.594,0.653,7.071,0.127,9.406-2.973C50.491,250.778,48.424,244.837,44.939,242.683z"/>
		<path style="opacity:0.6;fill:#C2A37E;" d="M46.076,265.253c-0.931,0.261-1.454,0.815-1.662,1.504
			c-0.997,1.443-0.197,2.892,1.128,3.763c0.991,1.093,2.408,1.635,3.67,0.593c0.759-0.309,1.321-0.979,1.43-2.152
			c0.069-0.161,0.146-0.32,0.214-0.478C52.164,265.55,48.233,263.746,46.076,265.253z"/>
		<path style="opacity:0.6;fill:#C2A37E;" d="M73.139,231.307c0.589-0.273-0.584,0.216-0.605,0.224
			c-0.751,0.23-1.496,0.49-2.224,0.778c-0.89,0.353-1.688,0.945-2.441,1.576c-0.179,0.139-0.34,0.276-0.506,0.432
			c-0.119,0.112-0.26,0.211-0.377,0.32c-3.738,3.569-0.655,10.39,4.653,9.174c1.12-0.258,2.108-0.792,2.936-1.48
			c1.973-0.813,3.471-2.6,4.6-4.343C81.759,234.01,77.253,229.406,73.139,231.307z"/>
		<path style="opacity:0.6;fill:#C2A37E;" d="M107.63,212.041c-0.077-1.31-0.528-2.448-1.341-3.306
			c-0.843-2.077-3.41-3.418-5.63-2.239c-0.85,0.452-1.755,0.758-2.491,1.421c-1.947,1.76-2.227,4.997-0.828,7.153
			c1.631,2.514,4.126,3.471,6.956,2.306c1.015-0.415,1.982-1.239,2.58-2.167c0.477-0.764,0.745-1.598,0.792-2.495
			C107.745,212.06,107.514,210.102,107.63,212.041z"/>
		<g style="opacity:0.6;">
			<path style="fill:#C2A37E;" d="M65.88,213.153c0.031-0.02,0.058-0.014,0.093-0.03C66.202,212.998,66.265,212.956,65.88,213.153z"
				/>
			<path style="fill:#C2A37E;" d="M71.079,215.451c-0.281-1.357-1.643-2.783-3.14-2.685c-0.69,0.046-1.322,0.059-1.967,0.356
				c-0.467,0.258-1.682,0.903-1.649,0.877c-1.647,1.483-1.778,4.088-0.292,5.73c2.801,3.105,6.95,0.376,6.992-2.83
				C71.136,216.443,71.189,215.961,71.079,215.451z"/>
		</g>
		<path style="opacity:0.6;fill:#C2A37E;" d="M95.575,256.418c-1.667-2.233-4.131-2.939-6.665-3.652
			c-3.272-0.917-6.791,0.732-7.841,4.057c-0.347,1.1-0.336,2.313-0.046,3.459c-0.099,0.15-0.233,0.264-0.318,0.425
			c-1.853,3.342-0.486,7.083,3.067,8.47c2.393,0.936,5.252,0.87,7.545-0.35c2.118-1.126,3.428-3.146,4.887-4.972
			C97.995,261.605,97.097,258.453,95.575,256.418z"/>
		<path style="opacity:0.6;fill:#C2A37E;" d="M62.834,281.125l-0.828,0.137c-2.131,0.365-3.499,2.631-3.073,4.692
			c0.48,2.324,2.54,3.239,4.691,3.077c0.28-0.021,0.563-0.046,0.844-0.064c2.179-0.171,3.504-2.806,3.104-4.738
			C67.116,282.034,64.979,280.75,62.834,281.125z"/>
		<path style="opacity:0.6;fill:#C2A37E;" d="M99.248,233.558c-0.088-0.038-0.176-0.078-0.265-0.118
			c-1.522-0.674-3.375,0.278-4.233,1.533c-2.17,3.189,0.819,6.611,4.253,6.059c1.893-0.304,2.759-2.063,2.607-3.71
			C101.828,235.737,100.833,234.258,99.248,233.558z"/>
		<path style="opacity:0.4;fill:#FFE3C2;" d="M67.395,253.616c-1.611-2.282-5.294-2.588-7.602-1.429
			c-1.246,0.626-2.331,1.779-2.969,3.117c-0.881,0.831-1.56,1.893-1.79,3.039c-0.714,3.487,1.094,7.068,4.868,7.482
			c3.439,2.004,7.512,0.714,9.204-3.313C70.42,259.397,69.205,256.185,67.395,253.616z"/>
		<path style="opacity:0.4;fill:#FFE3C2;" d="M44.232,288.372c-1.094-0.179-1.914,0.248-2.735,0.797
			c-3.496,1.4-1.532,6.768,2.385,5.383c0.469-0.167,0.848-0.447,1.228-0.767c0.096-0.081,1.837-2.219,0.648-1.101
			C47.449,291.087,46.294,288.711,44.232,288.372z"/>
		<path style="opacity:0.4;fill:#FFE3C2;" d="M78.252,276.129c-0.274-0.019-0.55-0.041-0.826-0.057
			c-4.688-0.305-3.63,7.375,0.469,6.061l0.798-0.256C81.723,280.901,81.734,276.358,78.252,276.129z"/>
		<path style="opacity:0.4;fill:#FFE3C2;" d="M235.745,123.314c-5.694,0.707-3.822,9.391,1.808,8.69
			C243.252,131.296,241.382,122.617,235.745,123.314z"/>
		<path style="fill:#FC6E75;" d="M175.296,60.958c-8.565,6.047-23.405,7.651-32.676,1.871c-0.623-0.396-1.275,0.411-0.816,0.969
			c8.077,9.767,29.532,11.617,37.635,0.661C181.43,61.769,177.612,59.321,175.296,60.958z"/>
		<path style="fill:#FC6E75;" d="M184.089,56.331c-0.586,0.372-0.965,0.872-1.047,1.493c-0.974,0.474-1.269,1.604-1.395,2.576
			c-0.22,1.604,1.565,2.275,2.798,1.828c1.41-0.509,2.511-1.284,3.676-2.224c0.558-0.449,0.832-1.326,0.661-2.014
			C188.264,55.897,185.875,55.196,184.089,56.331z"/>
	</g>
</g>
</svg>
